<svg width="212" height="59" viewBox="0 0 212 59" fill="none" xmlns="http://www.w3.org/2000/svg">
<rect width="212" height="59" rx="20" fill="#C13E3E"/>
<path d="M50.2 23.14H52.72V37H50.2V30.86H44.18V37H41.66V23.14H44.18V28.68H50.2V23.14ZM55.335 31.82C55.335 30.9 55.4683 30.0933 55.735 29.4C56.015 28.7067 56.3817 28.1333 56.835 27.68C57.2883 27.2133 57.8083 26.8667 58.395 26.64C58.9817 26.4 59.5817 26.28 60.195 26.28C61.635 26.28 62.755 26.7267 63.555 27.62C64.3683 28.5133 64.775 29.8467 64.775 31.62C64.775 31.7533 64.7683 31.9067 64.755 32.08C64.755 32.24 64.7483 32.3867 64.735 32.52H57.835C57.9017 33.36 58.195 34.0133 58.715 34.48C59.2483 34.9333 60.015 35.16 61.015 35.16C61.6017 35.16 62.135 35.1067 62.615 35C63.1083 34.8933 63.495 34.78 63.775 34.66L64.095 36.64C63.9617 36.7067 63.775 36.78 63.535 36.86C63.3083 36.9267 63.0417 36.9867 62.735 37.04C62.4417 37.1067 62.1217 37.16 61.775 37.2C61.4283 37.24 61.075 37.26 60.715 37.26C59.795 37.26 58.995 37.1267 58.315 36.86C57.635 36.58 57.075 36.2 56.635 35.72C56.195 35.2267 55.8683 34.6533 55.655 34C55.4417 33.3333 55.335 32.6067 55.335 31.82ZM62.355 30.74C62.355 30.4067 62.3083 30.0933 62.215 29.8C62.1217 29.4933 61.9817 29.2333 61.795 29.02C61.6217 28.7933 61.4017 28.62 61.135 28.5C60.8817 28.3667 60.575 28.3 60.215 28.3C59.8417 28.3 59.515 28.3733 59.235 28.52C58.955 28.6533 58.715 28.8333 58.515 29.06C58.3283 29.2867 58.1817 29.5467 58.075 29.84C57.9683 30.1333 57.895 30.4333 57.855 30.74H62.355ZM75.2208 28.56H71.8408V37H69.4208V28.56H66.0608V26.54H75.2208V28.56ZM85.8563 37.2C85.4696 37.2 85.0763 37.1867 84.6763 37.16C84.2763 37.1333 83.8896 37.1 83.5163 37.06C83.1563 37.02 82.8163 36.98 82.4963 36.94C82.1763 36.8867 81.9096 36.8333 81.6963 36.78V26.68C81.9096 26.6267 82.1763 26.58 82.4963 26.54C82.8163 26.4867 83.1563 26.4467 83.5163 26.42C83.8896 26.38 84.2763 26.3533 84.6763 26.34C85.0763 26.3133 85.4696 26.3 85.8563 26.3C87.2696 26.3 88.3696 26.56 89.1563 27.08C89.9429 27.5867 90.3363 28.3 90.3363 29.22C90.3363 29.7 90.2163 30.1267 89.9763 30.5C89.7363 30.8733 89.4229 31.1533 89.0363 31.34C89.5163 31.5267 89.9296 31.82 90.2763 32.22C90.6229 32.62 90.7963 33.1867 90.7963 33.92C90.7963 34.9733 90.3829 35.7867 89.5563 36.36C88.7296 36.92 87.4963 37.2 85.8563 37.2ZM85.9163 30.74C86.5163 30.74 87.0096 30.6533 87.3963 30.48C87.7963 30.3067 87.9963 29.96 87.9963 29.44C87.9963 29.1867 87.9296 28.98 87.7963 28.82C87.6763 28.66 87.5096 28.5333 87.2963 28.44C87.0829 28.3467 86.8363 28.2867 86.5563 28.26C86.2763 28.22 85.9829 28.2 85.6763 28.2C85.4363 28.2 85.1563 28.2067 84.8363 28.22C84.5296 28.2333 84.2829 28.2533 84.0963 28.28V30.74H85.9163ZM84.0963 35.2C84.2563 35.2267 84.5163 35.2533 84.8763 35.28C85.2496 35.2933 85.5963 35.3 85.9163 35.3C86.6363 35.3 87.2296 35.2 87.6963 35C88.1763 34.8 88.4163 34.42 88.4163 33.86C88.4163 33.3133 88.1963 32.94 87.7563 32.74C87.3296 32.5267 86.7696 32.42 86.0763 32.42H84.0963V35.2ZM106.531 37H104.111V32.62H100.171V37H97.7509V26.54H100.171V30.62H104.111V26.54H106.531V37ZM113.286 35.3C114.033 35.3 114.6 35.26 114.986 35.18V32.5C114.853 32.46 114.66 32.42 114.406 32.38C114.153 32.34 113.873 32.32 113.566 32.32C113.3 32.32 113.026 32.34 112.746 32.38C112.48 32.42 112.233 32.4933 112.006 32.6C111.793 32.7067 111.62 32.86 111.486 33.06C111.353 33.2467 111.286 33.4867 111.286 33.78C111.286 34.3533 111.466 34.7533 111.826 34.98C112.186 35.1933 112.673 35.3 113.286 35.3ZM113.086 26.28C113.886 26.28 114.56 26.38 115.106 26.58C115.653 26.78 116.086 27.06 116.406 27.42C116.74 27.78 116.973 28.22 117.106 28.74C117.253 29.2467 117.326 29.8067 117.326 30.42V36.76C116.953 36.84 116.386 36.9333 115.626 37.04C114.88 37.16 114.033 37.22 113.086 37.22C112.46 37.22 111.886 37.16 111.366 37.04C110.846 36.92 110.4 36.7267 110.026 36.46C109.666 36.1933 109.38 35.8467 109.166 35.42C108.966 34.9933 108.866 34.4667 108.866 33.84C108.866 33.24 108.98 32.7333 109.206 32.32C109.446 31.9067 109.766 31.5733 110.166 31.32C110.566 31.0533 111.026 30.8667 111.546 30.76C112.08 30.64 112.633 30.58 113.206 30.58C113.473 30.58 113.753 30.6 114.046 30.64C114.34 30.6667 114.653 30.72 114.986 30.8V30.4C114.986 30.12 114.953 29.8533 114.886 29.6C114.82 29.3467 114.7 29.1267 114.526 28.94C114.366 28.74 114.146 28.5867 113.866 28.48C113.6 28.3733 113.26 28.32 112.846 28.32C112.286 28.32 111.773 28.36 111.306 28.44C110.84 28.52 110.46 28.6133 110.166 28.72L109.866 26.76C110.173 26.6533 110.62 26.5467 111.206 26.44C111.793 26.3333 112.42 26.28 113.086 26.28ZM124.39 28.54C124.377 29.1267 124.357 29.74 124.33 30.38C124.303 31.0067 124.237 31.6267 124.13 32.24C124.037 32.8533 123.883 33.44 123.67 34C123.457 34.56 123.157 35.0667 122.77 35.52C122.397 35.96 121.923 36.3333 121.35 36.64C120.79 36.9333 120.103 37.12 119.29 37.2L118.95 35.18C119.63 35.0467 120.157 34.8333 120.53 34.54C120.903 34.2333 121.19 33.8467 121.39 33.38C121.55 33.0333 121.67 32.64 121.75 32.2C121.843 31.76 121.91 31.3 121.95 30.82C122.003 30.3267 122.037 29.8267 122.05 29.32C122.063 28.8133 122.07 28.32 122.07 27.84V26.54H129.47V37H127.05V28.54H124.39ZM141.716 26.54V37H139.316C139.316 36.24 139.316 35.4867 139.316 34.74C139.329 33.9933 139.336 33.3 139.336 32.66C139.349 32.02 139.356 31.4667 139.356 31C139.369 30.52 139.376 30.1667 139.376 29.94C138.976 30.46 138.562 31.0333 138.136 31.66C137.709 32.2867 137.282 32.9133 136.856 33.54C136.442 34.1667 136.049 34.78 135.676 35.38C135.302 35.98 134.976 36.52 134.696 37H132.556V26.54H134.936C134.936 27.3133 134.929 28.0533 134.916 28.76C134.916 29.4533 134.916 30.0867 134.916 30.66C134.916 31.2333 134.909 31.7333 134.896 32.16C134.896 32.5867 134.896 32.9133 134.896 33.14C135.269 32.5667 135.656 31.98 136.056 31.38C136.456 30.7667 136.856 30.1733 137.256 29.6C137.669 29.0133 138.076 28.46 138.476 27.94C138.876 27.42 139.262 26.9533 139.636 26.54H141.716ZM146.542 29.78C146.542 30.42 146.722 30.8733 147.082 31.14C147.455 31.3933 147.962 31.52 148.602 31.52C148.908 31.52 149.208 31.5067 149.502 31.48C149.808 31.44 150.075 31.3933 150.302 31.34V26.54H152.722V37H150.302V33.26C150.062 33.3 149.748 33.3533 149.362 33.42C148.975 33.4733 148.628 33.5 148.322 33.5C147.695 33.5 147.122 33.44 146.602 33.32C146.095 33.2 145.655 33 145.282 32.72C144.908 32.4267 144.622 32.0467 144.422 31.58C144.222 31.1 144.122 30.5067 144.122 29.8V26.54H146.542V29.78ZM164.958 26.54V37H162.558C162.558 36.24 162.558 35.4867 162.558 34.74C162.571 33.9933 162.578 33.3 162.578 32.66C162.591 32.02 162.598 31.4667 162.598 31C162.611 30.52 162.618 30.1667 162.618 29.94C162.218 30.46 161.804 31.0333 161.378 31.66C160.951 32.2867 160.524 32.9133 160.098 33.54C159.684 34.1667 159.291 34.78 158.918 35.38C158.544 35.98 158.218 36.52 157.938 37H155.798V26.54H158.178C158.178 27.3133 158.171 28.0533 158.158 28.76C158.158 29.4533 158.158 30.0867 158.158 30.66C158.158 31.2333 158.151 31.7333 158.138 32.16C158.138 32.5867 158.138 32.9133 158.138 33.14C158.511 32.5667 158.898 31.98 159.298 31.38C159.698 30.7667 160.098 30.1733 160.498 29.6C160.911 29.0133 161.318 28.46 161.718 27.94C162.118 27.42 162.504 26.9533 162.878 26.54H164.958ZM177.204 26.54V37H174.804C174.804 36.24 174.804 35.4867 174.804 34.74C174.817 33.9933 174.824 33.3 174.824 32.66C174.837 32.02 174.844 31.4667 174.844 31C174.857 30.52 174.864 30.1667 174.864 29.94C174.464 30.46 174.051 31.0333 173.624 31.66C173.197 32.2867 172.771 32.9133 172.344 33.54C171.931 34.1667 171.537 34.78 171.164 35.38C170.791 35.98 170.464 36.52 170.184 37H168.044V26.54H170.424C170.424 27.3133 170.417 28.0533 170.404 28.76C170.404 29.4533 170.404 30.0867 170.404 30.66C170.404 31.2333 170.397 31.7333 170.384 32.16C170.384 32.5867 170.384 32.9133 170.384 33.14C170.757 32.5667 171.144 31.98 171.544 31.38C171.944 30.7667 172.344 30.1733 172.744 29.6C173.157 29.0133 173.564 28.46 173.964 27.94C174.364 27.42 174.751 26.9533 175.124 26.54H177.204Z" fill="black"/>
</svg>
