<svg width="100" height="100" viewBox="0 0 100 100" fill="none" xmlns="http://www.w3.org/2000/svg">
<g clip-path="url(#clip0)">
<path d="M96.16 18.4H96.2L94.12 82.14C94.12 82.14 87.52 92.16 73.36 92.88C59.2 93.62 57.5 85.56 57.5 85.56L57.74 71.88L36.24 94.84C36.24 94.84 17.2 55.28 2.53998 28.74C38.62 5.84 68.22 8.04 68.22 8.04C68.22 8.04 96.42 9.02 96.16 18.4ZM74.88 30.88L74.9 30.64L75.06 27.26C75.06 27.26 83.48 29.36 88.24 22.86C89.12 21.66 89.46 20.58 89.46 19.6C89.46 19.42 89.44 19.22 89.42 19.04C89.16 17.18 87.6 15.76 86.02 14.76C84.2 13.62 82.14 12.94 80 12.7C76 12.26 67.84 12 62.88 16.16C56.1 21.84 59.5 25.92 62.52 27.56C63.94 28.36 68.92 30.46 74.88 30.88Z" fill="white"/>
<path d="M89.44 19.06C89.46 19.24 89.48 19.42 89.48 19.62C89.48 20.6 89.12 21.68 88.26 22.88C83.5 29.38 75.08 27.28 75.08 27.28L74.92 30.66L74.9 30.9C68.92 30.48 63.94 28.38 62.54 27.62C59.52 25.96 56.14 21.9 62.9 16.22C67.86 12.06 76.02 12.32 80.02 12.76C82.16 13 84.22 13.66 86.04 14.82C87.62 15.78 89.18 17.2 89.44 19.06Z" fill="white"/>
<path d="M96.2 18.22V18.4L94.12 82.14C94.12 82.14 87.52 92.16 73.36 92.88C59.2 93.62 57.5 85.56 57.5 85.56L57.74 71.88L36.24 94.84C36.24 94.84 17.2 55.28 2.53998 28.74C38.62 5.84 68.22 8.04 68.22 8.04C68.22 8.04 96.42 9.02 96.16 18.4C96.12 19.72 95.52 21.2 94.2 22.88C88.68 29.86 81.22 31.32 74.88 30.88C68.9 30.46 63.92 28.36 62.52 27.6C59.5 25.94 56.12 21.88 62.88 16.2C67.84 12.04 76 12.3 80 12.74C82.14 12.98 84.2 13.64 86.02 14.8C87.6 15.8 89.16 17.22 89.42 19.08C89.44 19.26 89.46 19.44 89.46 19.64C89.46 20.62 89.1 21.7 88.24 22.9C83.48 29.4 75.06 27.3 75.06 27.3L74.9 30.68" stroke="#CC0000" stroke-width="4" stroke-miterlimit="10" stroke-linecap="round"/>
<path d="M57.74 71.88L58.94 22.24" stroke="#CC0000" stroke-width="4" stroke-miterlimit="10"/>
<path d="M5.57996 30.38C21.42 57.16 21.36 57.12 35.7 88.42" stroke="#CC0000" stroke-width="4" stroke-miterlimit="10" stroke-linecap="round"/>
<path d="M58.94 85.56C58.94 85.56 61.86 90.56 72 90.8" stroke="#CC0000" stroke-width="4" stroke-miterlimit="10" stroke-linecap="round"/>
<path d="M93.92 27.08L92.46 69.02" stroke="#CC0000" stroke-width="4" stroke-miterlimit="10" stroke-linecap="round"/>
<path d="M89.46 19.2L89.02 27.62" stroke="#CC0000" stroke-width="4" stroke-miterlimit="10" stroke-linecap="round"/>
</g>
<defs>
<clipPath id="clip0">
<rect width="100" height="100" fill="white"/>
</clipPath>
</defs>
</svg>
